# xmcd CD database file
#
# Track frame offsets:
#	150
#	38476
#	78124
#	83057
#	100547
#	120280
#	162316
#	180772
#	195374
#	225590
#	247492
#
# Disc length: 3769 seconds
#
# Revision: 1
# Processed by: cddbd v1.5.2PL0 Copyright (c) Steve Scherf et al.
# Submitted via: CDex 1.70beta2
#
DISCID=6d0eb70b
DTITLE=Thelonious Monk - Thelonious In Action/Thelonious Himself
DYEAR=1958
DGENRE=Jazz
TTITLE0=Blue Monk
TTITLE1=Evidence
TTITLE2=Epistrophy (Theme 2)
TTITLE3=April in Paris
TTITLE4=(I Don't Stand) A Ghost of a Chance (With You)
TTITLE5=Functional
TTITLE6=I'm Getting Sentimental Over You
TTITLE7=I Should Care
TTITLE8='Round Midnight
TTITLE9=All Alone
TTITLE10=Monk's Mood
EXTD=YEAR: 1958
EXTT0=
EXTT1=
EXTT2=
EXTT3=
EXTT4=
EXTT5=
EXTT6=
EXTT7=
EXTT8=
EXTT9=
EXTT10=
PLAYORDER=
